<svg viewBox="0 0 200 200" xmlns="http://www.w3.org/2000/svg">
  <!-- Background circle with gradient -->
  <defs>
    <linearGradient id="bgGradient" x1="0%" y1="0%" x2="100%" y2="100%">
      <stop offset="0%" style="stop-color:#FF7043;stop-opacity:1" />
      <stop offset="100%" style="stop-color:#FF5722;stop-opacity:1" />
    </linearGradient>
    
    <linearGradient id="plateGradient" x1="0%" y1="0%" x2="100%" y2="100%">
      <stop offset="0%" style="stop-color:#F8FAFC;stop-opacity:1" />
      <stop offset="100%" style="stop-color:#E2E8F0;stop-opacity:1" />
    </linearGradient>
    
    <linearGradient id="chartGradient" x1="0%" y1="0%" x2="100%" y2="100%">
      <stop offset="0%" style="stop-color:#FF7043;stop-opacity:0.8" />
      <stop offset="100%" style="stop-color:#FF5722;stop-opacity:1" />
    </linearGradient>
    
    <linearGradient id="foodGradient" x1="0%" y1="0%" x2="100%" y2="100%">
      <stop offset="0%" style="stop-color:#FFC107;stop-opacity:1" />
      <stop offset="100%" style="stop-color:#FF9800;stop-opacity:1" />
    </linearGradient>
    
    <!-- Shadow filter -->
    <filter id="shadow" x="-50%" y="-50%" width="200%" height="200%">
      <feDropShadow dx="2" dy="4" stdDeviation="3" flood-opacity="0.3"/>
    </filter>
  </defs>
  
  <!-- Main background -->
  <circle cx="100" cy="100" r="90" fill="url(#bgGradient)" filter="url(#shadow)"/>
  
  <!-- Restaurant plate (representing the restaurant aspect) -->
  <circle cx="100" cy="100" r="65" fill="url(#plateGradient)" stroke="#CBD5E1" stroke-width="2"/>
  
  <!-- Dashboard elements - Chart bars -->
  <g transform="translate(60, 70)">
    <!-- Bar chart representing dashboard analytics -->
    <rect x="0" y="20" width="8" height="25" fill="url(#chartGradient)" rx="2"/>
    <rect x="12" y="10" width="8" height="35" fill="url(#chartGradient)" rx="2"/>
    <rect x="24" y="15" width="8" height="30" fill="url(#chartGradient)" rx="2"/>
    <rect x="36" y="5" width="8" height="40" fill="url(#chartGradient)" rx="2"/>
  </g>
  
  <!-- Mobile/Web app representation -->
  <g transform="translate(120, 65)">
    <!-- Mobile device outline -->
    <rect x="0" y="0" width="20" height="35" fill="#1F2937" rx="4" stroke="#374151" stroke-width="1"/>
    <rect x="2" y="4" width="16" height="24" fill="#F3F4F6" rx="1"/>
    
    <!-- App interface elements -->
    <circle cx="10" cy="30" r="1.5" fill="#6B7280"/>
    
    <!-- Menu items on the screen -->
    <rect x="4" y="7" width="12" height="2" fill="#E5E7EB" rx="1"/>
    <rect x="4" y="11" width="8" height="2" fill="#E5E7EB" rx="1"/>
    <rect x="4" y="15" width="10" height="2" fill="#E5E7EB" rx="1"/>
    <rect x="4" y="19" width="6" height="2" fill="#E5E7EB" rx="1"/>
  </g>
  
  <!-- Food items on the plate -->
  <g transform="translate(100, 95)">
    <!-- Pizza slice -->
    <path d="M -15 -8 L -5 -8 A 10 10 0 0 1 5 2 L -15 2 Z" fill="url(#foodGradient)" stroke="#FF8F00" stroke-width="1"/>
    <!-- Pizza toppings -->
    <circle cx="-10" cy="-3" r="1.5" fill="#D32F2F"/>
    <circle cx="-7" cy="-1" r="1" fill="#4CAF50"/>
    
    <!-- Burger -->
    <ellipse cx="8" cy="-5" rx="8" ry="4" fill="#8D6E63"/>
    <ellipse cx="8" cy="-7" rx="7" ry="3" fill="url(#foodGradient)"/>
    <ellipse cx="8" cy="-9" rx="6" ry="2" fill="#4CAF50" opacity="0.8"/>
    <ellipse cx="8" cy="-11" rx="6" ry="2" fill="#D32F2F" opacity="0.8"/>
    <ellipse cx="8" cy="-13" rx="7" ry="3" fill="#8D6E63"/>
    
    <!-- French fries -->
    <g transform="translate(-8, 8)">
      <rect x="0" y="0" width="2" height="8" fill="url(#foodGradient)" rx="1"/>
      <rect x="3" y="-1" width="2" height="9" fill="url(#foodGradient)" rx="1"/>
      <rect x="6" y="1" width="2" height="7" fill="url(#foodGradient)" rx="1"/>
      <rect x="9" y="0" width="2" height="8" fill="url(#foodGradient)" rx="1"/>
    </g>
  </g>
  
  <!-- Company name -->
  <text x="100" y="180" text-anchor="middle" font-family="Arial, sans-serif" font-size="14" font-weight="bold" fill="white">MANNA</text>
  <text x="100" y="195" text-anchor="middle" font-family="Arial, sans-serif" font-size="10" fill="white">SOFTWARE</text>
</svg>